<mxfile host="app.diagrams.net" modified="2024-05-21T14:17:56.534Z" agent="Mozilla/5.0 (Windows NT 10.0; Win64; x64) AppleWebKit/537.36 (KHTML, like Gecko) Chrome/124.0.0.0 Safari/537.36 Edg/124.0.0.0" etag="Kg7fWW87rPnsWK30vJjS" version="24.4.4" type="github">
  <diagram name="Seite-1" id="b443CF1VhAPyvtgchh_f">
    <mxGraphModel dx="822" dy="354" grid="1" gridSize="10" guides="1" tooltips="1" connect="1" arrows="1" fold="1" page="1" pageScale="1" pageWidth="827" pageHeight="1169" math="0" shadow="0">
      <root>
        <mxCell id="0" />
        <mxCell id="1" parent="0" />
        <mxCell id="PsjCeRsLh5jmi4K4YWCr-5" value="Person" style="swimlane;fontStyle=3;align=center;verticalAlign=top;childLayout=stackLayout;horizontal=1;startSize=26;horizontalStack=0;resizeParent=1;resizeLast=0;collapsible=1;marginBottom=0;rounded=0;shadow=0;strokeWidth=1;" vertex="1" parent="1">
          <mxGeometry x="530" y="460" width="160" height="164" as="geometry">
            <mxRectangle x="230" y="140" width="160" height="26" as="alternateBounds" />
          </mxGeometry>
        </mxCell>
        <mxCell id="PsjCeRsLh5jmi4K4YWCr-6" value="- PersonID: integer&#xa;- Vorname: String&#xa;- Nachname: String&#xa;- AdressID: integer&#xa;- gelöscht: boolean&#xa;- eMail: string" style="text;align=left;verticalAlign=top;spacingLeft=4;spacingRight=4;overflow=hidden;rotatable=0;points=[[0,0.5],[1,0.5]];portConstraint=eastwest;" vertex="1" parent="PsjCeRsLh5jmi4K4YWCr-5">
          <mxGeometry y="26" width="160" height="104" as="geometry" />
        </mxCell>
        <mxCell id="PsjCeRsLh5jmi4K4YWCr-7" value="" style="line;html=1;strokeWidth=1;align=left;verticalAlign=middle;spacingTop=-1;spacingLeft=3;spacingRight=3;rotatable=0;labelPosition=right;points=[];portConstraint=eastwest;" vertex="1" parent="PsjCeRsLh5jmi4K4YWCr-5">
          <mxGeometry y="130" width="160" height="8" as="geometry" />
        </mxCell>
        <mxCell id="PsjCeRsLh5jmi4K4YWCr-8" value="DOJO-Person" style="swimlane;fontStyle=1;align=center;verticalAlign=top;childLayout=stackLayout;horizontal=1;startSize=26;horizontalStack=0;resizeParent=1;resizeParentMax=0;resizeLast=0;collapsible=1;marginBottom=0;whiteSpace=wrap;html=1;" vertex="1" parent="1">
          <mxGeometry x="530" y="690" width="160" height="180" as="geometry" />
        </mxCell>
        <mxCell id="PsjCeRsLh5jmi4K4YWCr-9" value="&lt;div&gt;- LevelID: integer&lt;/div&gt;" style="text;strokeColor=none;fillColor=none;align=left;verticalAlign=top;spacingLeft=4;spacingRight=4;overflow=hidden;rotatable=0;points=[[0,0.5],[1,0.5]];portConstraint=eastwest;whiteSpace=wrap;html=1;" vertex="1" parent="PsjCeRsLh5jmi4K4YWCr-8">
          <mxGeometry y="26" width="160" height="84" as="geometry" />
        </mxCell>
        <mxCell id="PsjCeRsLh5jmi4K4YWCr-10" value="" style="line;strokeWidth=1;fillColor=none;align=left;verticalAlign=middle;spacingTop=-1;spacingLeft=3;spacingRight=3;rotatable=0;labelPosition=right;points=[];portConstraint=eastwest;strokeColor=inherit;" vertex="1" parent="PsjCeRsLh5jmi4K4YWCr-8">
          <mxGeometry y="110" width="160" height="8" as="geometry" />
        </mxCell>
        <mxCell id="PsjCeRsLh5jmi4K4YWCr-11" value="+ method(type): type" style="text;strokeColor=none;fillColor=none;align=left;verticalAlign=top;spacingLeft=4;spacingRight=4;overflow=hidden;rotatable=0;points=[[0,0.5],[1,0.5]];portConstraint=eastwest;whiteSpace=wrap;html=1;" vertex="1" parent="PsjCeRsLh5jmi4K4YWCr-8">
          <mxGeometry y="118" width="160" height="62" as="geometry" />
        </mxCell>
        <mxCell id="PsjCeRsLh5jmi4K4YWCr-12" value="Schüler" style="swimlane;fontStyle=0;align=center;verticalAlign=top;childLayout=stackLayout;horizontal=1;startSize=26;horizontalStack=0;resizeParent=1;resizeLast=0;collapsible=1;marginBottom=0;rounded=0;shadow=0;strokeWidth=1;" vertex="1" parent="1">
          <mxGeometry x="300" y="690" width="160" height="180" as="geometry">
            <mxRectangle x="130" y="380" width="160" height="26" as="alternateBounds" />
          </mxGeometry>
        </mxCell>
        <mxCell id="PsjCeRsLh5jmi4K4YWCr-13" value="- StartLevelID: integer&#xa;- Eintrittsdatum: date" style="text;align=left;verticalAlign=top;spacingLeft=4;spacingRight=4;overflow=hidden;rotatable=0;points=[[0,0.5],[1,0.5]];portConstraint=eastwest;" vertex="1" parent="PsjCeRsLh5jmi4K4YWCr-12">
          <mxGeometry y="26" width="160" height="94" as="geometry" />
        </mxCell>
        <mxCell id="PsjCeRsLh5jmi4K4YWCr-14" value="" style="line;html=1;strokeWidth=1;align=left;verticalAlign=middle;spacingTop=-1;spacingLeft=3;spacingRight=3;rotatable=0;labelPosition=right;points=[];portConstraint=eastwest;" vertex="1" parent="PsjCeRsLh5jmi4K4YWCr-12">
          <mxGeometry y="120" width="160" height="8" as="geometry" />
        </mxCell>
        <mxCell id="PsjCeRsLh5jmi4K4YWCr-15" value="Sensei" style="swimlane;fontStyle=0;align=center;verticalAlign=top;childLayout=stackLayout;horizontal=1;startSize=26;horizontalStack=0;resizeParent=1;resizeLast=0;collapsible=1;marginBottom=0;rounded=0;shadow=0;strokeWidth=1;" vertex="1" parent="1">
          <mxGeometry x="760" y="695" width="209" height="175" as="geometry">
            <mxRectangle x="340" y="380" width="170" height="26" as="alternateBounds" />
          </mxGeometry>
        </mxCell>
        <mxCell id="PsjCeRsLh5jmi4K4YWCr-16" value="- LoginErlaubt: boolean&#xa;- Lohn: integer" style="text;align=left;verticalAlign=top;spacingLeft=4;spacingRight=4;overflow=hidden;rotatable=0;points=[[0,0.5],[1,0.5]];portConstraint=eastwest;" vertex="1" parent="PsjCeRsLh5jmi4K4YWCr-15">
          <mxGeometry y="26" width="209" height="74" as="geometry" />
        </mxCell>
        <mxCell id="PsjCeRsLh5jmi4K4YWCr-17" value="" style="line;html=1;strokeWidth=1;align=left;verticalAlign=middle;spacingTop=-1;spacingLeft=3;spacingRight=3;rotatable=0;labelPosition=right;points=[];portConstraint=eastwest;" vertex="1" parent="PsjCeRsLh5jmi4K4YWCr-15">
          <mxGeometry y="100" width="209" height="30" as="geometry" />
        </mxCell>
        <mxCell id="PsjCeRsLh5jmi4K4YWCr-30" value="+ updateDatenbank(): boolean&lt;br&gt;+ E-Mail-Benachrichtigung(): boolean" style="text;html=1;align=left;verticalAlign=middle;resizable=0;points=[];autosize=1;strokeColor=none;fillColor=none;" vertex="1" parent="PsjCeRsLh5jmi4K4YWCr-15">
          <mxGeometry y="130" width="209" height="40" as="geometry" />
        </mxCell>
        <mxCell id="PsjCeRsLh5jmi4K4YWCr-27" value="" style="endArrow=block;endSize=16;endFill=0;html=1;rounded=0;exitX=0.5;exitY=0;exitDx=0;exitDy=0;entryX=0.5;entryY=1;entryDx=0;entryDy=0;" edge="1" parent="1" source="PsjCeRsLh5jmi4K4YWCr-8" target="PsjCeRsLh5jmi4K4YWCr-5">
          <mxGeometry width="160" relative="1" as="geometry">
            <mxPoint x="240" y="600" as="sourcePoint" />
            <mxPoint x="400" y="600" as="targetPoint" />
          </mxGeometry>
        </mxCell>
        <mxCell id="PsjCeRsLh5jmi4K4YWCr-28" value="" style="endArrow=block;endSize=16;endFill=0;html=1;rounded=0;exitX=-0.008;exitY=0.635;exitDx=0;exitDy=0;entryX=1;entryY=0.611;entryDx=0;entryDy=0;entryPerimeter=0;exitPerimeter=0;" edge="1" parent="1" source="PsjCeRsLh5jmi4K4YWCr-16" target="PsjCeRsLh5jmi4K4YWCr-9">
          <mxGeometry width="160" relative="1" as="geometry">
            <mxPoint x="620" y="700" as="sourcePoint" />
            <mxPoint x="620" y="634" as="targetPoint" />
          </mxGeometry>
        </mxCell>
        <mxCell id="PsjCeRsLh5jmi4K4YWCr-29" value="" style="endArrow=block;endSize=16;endFill=0;html=1;rounded=0;exitX=1.008;exitY=0.596;exitDx=0;exitDy=0;entryX=0;entryY=0.643;entryDx=0;entryDy=0;entryPerimeter=0;exitPerimeter=0;" edge="1" parent="1" source="PsjCeRsLh5jmi4K4YWCr-13" target="PsjCeRsLh5jmi4K4YWCr-9">
          <mxGeometry width="160" relative="1" as="geometry">
            <mxPoint x="630" y="710" as="sourcePoint" />
            <mxPoint x="630" y="644" as="targetPoint" />
          </mxGeometry>
        </mxCell>
        <mxCell id="PsjCeRsLh5jmi4K4YWCr-31" value="" style="endArrow=diamondThin;endFill=1;endSize=24;html=1;rounded=0;entryX=0.5;entryY=1;entryDx=0;entryDy=0;exitX=0.682;exitY=-0.002;exitDx=0;exitDy=0;exitPerimeter=0;" edge="1" parent="1" source="PsjCeRsLh5jmi4K4YWCr-32" target="PsjCeRsLh5jmi4K4YWCr-15">
          <mxGeometry width="160" relative="1" as="geometry">
            <mxPoint x="865" y="940" as="sourcePoint" />
            <mxPoint x="720" y="850" as="targetPoint" />
          </mxGeometry>
        </mxCell>
        <mxCell id="PsjCeRsLh5jmi4K4YWCr-32" value="Kurs" style="swimlane;fontStyle=1;align=center;verticalAlign=top;childLayout=stackLayout;horizontal=1;startSize=26;horizontalStack=0;resizeParent=1;resizeParentMax=0;resizeLast=0;collapsible=1;marginBottom=0;whiteSpace=wrap;html=1;" vertex="1" parent="1">
          <mxGeometry x="760" y="960" width="160" height="180" as="geometry" />
        </mxCell>
        <mxCell id="PsjCeRsLh5jmi4K4YWCr-33" value="KursID: integer&lt;div&gt;Kursdatum: date&lt;/div&gt;&lt;div&gt;SenseiPersonenID: integer&lt;/div&gt;&lt;div&gt;DOJO-StandortID: integer&lt;/div&gt;&lt;div&gt;abgehalter: boolean&lt;/div&gt;" style="text;strokeColor=none;fillColor=none;align=left;verticalAlign=top;spacingLeft=4;spacingRight=4;overflow=hidden;rotatable=0;points=[[0,0.5],[1,0.5]];portConstraint=eastwest;whiteSpace=wrap;html=1;" vertex="1" parent="PsjCeRsLh5jmi4K4YWCr-32">
          <mxGeometry y="26" width="160" height="84" as="geometry" />
        </mxCell>
        <mxCell id="PsjCeRsLh5jmi4K4YWCr-34" value="" style="line;strokeWidth=1;fillColor=none;align=left;verticalAlign=middle;spacingTop=-1;spacingLeft=3;spacingRight=3;rotatable=0;labelPosition=right;points=[];portConstraint=eastwest;strokeColor=inherit;" vertex="1" parent="PsjCeRsLh5jmi4K4YWCr-32">
          <mxGeometry y="110" width="160" height="8" as="geometry" />
        </mxCell>
        <mxCell id="PsjCeRsLh5jmi4K4YWCr-35" value="+ method(type): type" style="text;strokeColor=none;fillColor=none;align=left;verticalAlign=top;spacingLeft=4;spacingRight=4;overflow=hidden;rotatable=0;points=[[0,0.5],[1,0.5]];portConstraint=eastwest;whiteSpace=wrap;html=1;" vertex="1" parent="PsjCeRsLh5jmi4K4YWCr-32">
          <mxGeometry y="118" width="160" height="62" as="geometry" />
        </mxCell>
        <mxCell id="PsjCeRsLh5jmi4K4YWCr-36" value="Prüfung" style="swimlane;fontStyle=1;align=center;verticalAlign=top;childLayout=stackLayout;horizontal=1;startSize=26;horizontalStack=0;resizeParent=1;resizeParentMax=0;resizeLast=0;collapsible=1;marginBottom=0;whiteSpace=wrap;html=1;" vertex="1" parent="1">
          <mxGeometry x="580" y="959" width="160" height="210" as="geometry" />
        </mxCell>
        <mxCell id="PsjCeRsLh5jmi4K4YWCr-37" value="&lt;div&gt;SenseiPersonenID: integer&lt;/div&gt;&lt;div&gt;SchülerPersonenID: integer&lt;/div&gt;&lt;div&gt;bestanden: boolean&lt;/div&gt;&lt;div&gt;LevelID: integer&lt;/div&gt;&lt;div&gt;NewLevelID: integer&lt;/div&gt;&lt;div&gt;Prüfungsdatum: date&lt;/div&gt;&lt;div&gt;DOJOStandortID: integer&lt;/div&gt;" style="text;strokeColor=none;fillColor=none;align=left;verticalAlign=top;spacingLeft=4;spacingRight=4;overflow=hidden;rotatable=0;points=[[0,0.5],[1,0.5]];portConstraint=eastwest;whiteSpace=wrap;html=1;" vertex="1" parent="PsjCeRsLh5jmi4K4YWCr-36">
          <mxGeometry y="26" width="160" height="114" as="geometry" />
        </mxCell>
        <mxCell id="PsjCeRsLh5jmi4K4YWCr-38" value="" style="line;strokeWidth=1;fillColor=none;align=left;verticalAlign=middle;spacingTop=-1;spacingLeft=3;spacingRight=3;rotatable=0;labelPosition=right;points=[];portConstraint=eastwest;strokeColor=inherit;" vertex="1" parent="PsjCeRsLh5jmi4K4YWCr-36">
          <mxGeometry y="140" width="160" height="8" as="geometry" />
        </mxCell>
        <mxCell id="PsjCeRsLh5jmi4K4YWCr-39" value="+ method(type): type" style="text;strokeColor=none;fillColor=none;align=left;verticalAlign=top;spacingLeft=4;spacingRight=4;overflow=hidden;rotatable=0;points=[[0,0.5],[1,0.5]];portConstraint=eastwest;whiteSpace=wrap;html=1;" vertex="1" parent="PsjCeRsLh5jmi4K4YWCr-36">
          <mxGeometry y="148" width="160" height="62" as="geometry" />
        </mxCell>
        <mxCell id="PsjCeRsLh5jmi4K4YWCr-40" value="Wettkampf" style="swimlane;fontStyle=1;align=center;verticalAlign=top;childLayout=stackLayout;horizontal=1;startSize=26;horizontalStack=0;resizeParent=1;resizeParentMax=0;resizeLast=0;collapsible=1;marginBottom=0;whiteSpace=wrap;html=1;" vertex="1" parent="1">
          <mxGeometry x="360" y="959" width="200" height="210" as="geometry" />
        </mxCell>
        <mxCell id="PsjCeRsLh5jmi4K4YWCr-41" value="&lt;div&gt;SchiedsrichterPersonenID: integer&lt;/div&gt;&lt;div&gt;HerausforderPersonenID: integer&lt;/div&gt;&lt;div&gt;GegnerPersonenID: integer&lt;/div&gt;&lt;div&gt;WettkampfDatum: date&lt;/div&gt;&lt;div&gt;DOJOStandortID: integer&lt;/div&gt;&lt;div&gt;HerausfordererPunkte: integer&lt;/div&gt;&lt;div&gt;GengerPunkte: integer&lt;/div&gt;&lt;div&gt;&lt;br&gt;&lt;/div&gt;" style="text;strokeColor=none;fillColor=none;align=left;verticalAlign=top;spacingLeft=4;spacingRight=4;overflow=hidden;rotatable=0;points=[[0,0.5],[1,0.5]];portConstraint=eastwest;whiteSpace=wrap;html=1;" vertex="1" parent="PsjCeRsLh5jmi4K4YWCr-40">
          <mxGeometry y="26" width="200" height="114" as="geometry" />
        </mxCell>
        <mxCell id="PsjCeRsLh5jmi4K4YWCr-42" value="" style="line;strokeWidth=1;fillColor=none;align=left;verticalAlign=middle;spacingTop=-1;spacingLeft=3;spacingRight=3;rotatable=0;labelPosition=right;points=[];portConstraint=eastwest;strokeColor=inherit;" vertex="1" parent="PsjCeRsLh5jmi4K4YWCr-40">
          <mxGeometry y="140" width="200" height="8" as="geometry" />
        </mxCell>
        <mxCell id="PsjCeRsLh5jmi4K4YWCr-43" value="+ method(type): type" style="text;strokeColor=none;fillColor=none;align=left;verticalAlign=top;spacingLeft=4;spacingRight=4;overflow=hidden;rotatable=0;points=[[0,0.5],[1,0.5]];portConstraint=eastwest;whiteSpace=wrap;html=1;" vertex="1" parent="PsjCeRsLh5jmi4K4YWCr-40">
          <mxGeometry y="148" width="200" height="62" as="geometry" />
        </mxCell>
        <mxCell id="PsjCeRsLh5jmi4K4YWCr-44" value="" style="endArrow=diamondThin;endFill=1;endSize=24;html=1;rounded=0;exitX=0.5;exitY=0;exitDx=0;exitDy=0;" edge="1" parent="1" source="PsjCeRsLh5jmi4K4YWCr-36">
          <mxGeometry width="160" relative="1" as="geometry">
            <mxPoint x="560" y="1050" as="sourcePoint" />
            <mxPoint x="830" y="870" as="targetPoint" />
            <Array as="points">
              <mxPoint x="660" y="940" />
              <mxPoint x="830" y="940" />
            </Array>
          </mxGeometry>
        </mxCell>
        <mxCell id="PsjCeRsLh5jmi4K4YWCr-45" value="" style="endArrow=diamondThin;endFill=1;endSize=24;html=1;rounded=0;entryX=0.25;entryY=1;entryDx=0;entryDy=0;exitX=0.69;exitY=-0.013;exitDx=0;exitDy=0;exitPerimeter=0;" edge="1" parent="1" source="PsjCeRsLh5jmi4K4YWCr-40" target="PsjCeRsLh5jmi4K4YWCr-15">
          <mxGeometry width="160" relative="1" as="geometry">
            <mxPoint x="510" y="959" as="sourcePoint" />
            <mxPoint x="680" y="870" as="targetPoint" />
            <Array as="points">
              <mxPoint x="500" y="930" />
              <mxPoint x="812" y="930" />
            </Array>
          </mxGeometry>
        </mxCell>
      </root>
    </mxGraphModel>
  </diagram>
</mxfile>
